# xmcd
#
# Track frame offsets:
#	150
#	15689
#	32416
#	49335
#	71018
#	87632
#	100033
#	116355
#	127771
#	139524
#	161157
#	177863
#	194061
#	208602
#	223084
#
# Disc length: 3148 seconds
#
# Revision: 0
# Processed by: cddbd v1.5.1PL0 Copyright (c) Steve Scherf et al.
# Submitted via: dBpowerAMP V4.0
#
DISCID=d50c4a0f
DTITLE=Varios - Cabocla
DYEAR=2004
DGENRE=Novela
TTITLE0=Zeze_di_camargo_e_luciano-Nosso_amor_e_ouro
TTITLE1=Cleiton_camargo-Você_o_amor_e_eu
TTITLE2=Rionegro_e_solimoes-Floresce
TTITLE3=Milton_nascimento-Outro_lugar
TTITLE4=Ivan_lins-Sertaneja
TTITLE5=Roberta_miranda-Historia_do_sertao
TTITLE6=Renato_teixeira-Amora
TTITLE7=Rolando_boldrin-Manha_bonita
TTITLE8=Lazza_schiavon_deluqui-Madrigal
TTITLE9=Flavio_venturini_e_caetano_veloso-Céu_de_santo_amaro
TTITLE10=Marlon_e_maicon-Sem_palavras
TTITLE11=Rick_e_renner-Riacho_sereno
TTITLE12=Sergio_reis-Meu_cavalo_zaino
TTITLE13=Teodoro_e_sampaio-O_trem_ta_feio
TTITLE14=Almir_sater-Benzinho
EXTD=Novela Cabocla - Rede Globo 2004
EXTT0=
EXTT1=
EXTT2=
EXTT3=
EXTT4=
EXTT5=
EXTT6=
EXTT7=
EXTT8=
EXTT9=
EXTT10=
EXTT11=
EXTT12=
EXTT13=
EXTT14=
PLAYORDER=
